PathFileType  4	(X/Y/Z) C:\Users\antoi\Documents\MyRepositories\mobilecap\ResultsAnalysis
DataRate	CameraRate	NumFrames	NumMarkers	Units	OrigDataRate	OrigDataStartFrame	OrigNumFrames
100.0	100.0	4	51	mm	100.0	100	132
Frame#	Time	r_knee			r_shank_antsup			r_ankle			r_calc			r_5meta			r_toe			L_knee			L_shank_antsup			L_ankle			L_calc			L_5meta			L_toe			r_sh2			r_sh3			r_sh4			L_sh2			L_sh3			r_thigh1			r_thigh2			r_thigh3			r_thigh4			r_thigh5			L_thigh1			L_thigh2			L_thigh3			L_thigh4			r.ASIS			r.PSIS			L.ASIS			L.PSIS			C7			R_Shoulder			L_Shoulder			R_Sternum			L_Sternum			R_humerus			R_elbow_med			R_elbow_lat			R_forearm			R_wrist_radius			R_wrist_ulna			L_humerus			L_elbow_med			L_elbow_lat			L_forearm			L_wrist_radius			L_wrist_ulna			R_HJC			L_HJC			R_HJC_reg			L_HJC_reg			
		X1	Y1	Z1	X2	Y2	Z2	X3	Y3	Z3	X4	Y4	Z4	X5	Y5	Z5	X6	Y6	Z6	X7	Y7	Z7	X8	Y8	Z8	X9	Y9	Z9	X10	Y10	Z10	X11	Y11	Z11	X12	Y12	Z12	X13	Y13	Z13	X14	Y14	Z14	X15	Y15	Z15	X16	Y16	Z16	X17	Y17	Z17	X18	Y18	Z18	X19	Y19	Z19	X20	Y20	Z20	X21	Y21	Z21	X22	Y22	Z22	X23	Y23	Z23	X24	Y24	Z24	X25	Y25	Z25	X26	Y26	Z26	X27	Y27	Z27	X28	Y28	Z28	X29	Y29	Z29	X30	Y30	Z30	X31	Y31	Z31	X32	Y32	Z32	X33	Y33	Z33	X34	Y34	Z34	X35	Y35	Z35	X36	Y36	Z36	X37	Y37	Z37	X38	Y38	Z38	X39	Y39	Z39	X40	Y40	Z40	X41	Y41	Z41	X42	Y42	Z42	X43	Y43	Z43	X44	Y44	Z44	X45	Y45	Z45	X46	Y46	Z46	X47	Y47	Z47	X48	Y48	Z48	X49	Y49	Z49	X50	Y50	Z50	X51	Y51	Z51	

100	0.99000000	1177.65528	513.65853	-56.89271	1224.26650	476.40304	-69.01940	1197.13027	111.19107	-87.05042	1143.41338	69.85296	-134.96200	1332.40613	64.02054	-53.82762	1367.19414	99.93294	-108.95284	913.08969	487.87032	-343.94043	921.08476	397.89057	-346.07431	815.08858	95.23093	-270.14582	752.71923	62.34777	-214.76849	933.16207	39.43160	-293.13269	978.83730	60.16114	-240.28476	1236.00540	363.43080	-80.93852	1160.77336	463.33747	-26.86295	1173.03523	348.22120	-24.93398	836.19563	423.65735	-356.27253	810.60272	306.18159	-340.95068	1135.70122	812.50021	-116.80089	1190.69682	716.46665	-110.78355	1189.30641	692.78168	-46.25279	1088.09312	791.14862	-18.83060	1141.03436	689.51503	-16.33324	1018.99370	799.10493	-379.31126	996.89536	659.87940	-376.43129	906.61240	815.86174	-373.49903	883.34953	682.70913	-352.55593	1088.68128	955.14447	-89.13486	891.66813	989.50895	-146.16128	1077.74540	936.51980	-323.66659	883.91243	994.00625	-245.74539	960.48239	1459.37692	-225.78790	1007.73596	1424.49771	-62.14561	1032.09928	1411.54073	-377.14237	1068.61332	1360.49763	-200.82719	1072.43245	1355.62509	-238.51520	949.01028	1192.32049	25.04647	866.85456	1122.98614	-8.42682	897.75205	1116.02367	45.32909	912.82834	975.41228	67.76832	909.68026	867.73720	57.70265	882.40532	880.54323	88.37058	1085.36702	1191.98503	-458.52393	1056.36105	1074.26587	-429.51948	1089.00256	1087.96141	-477.75921	1206.72373	1002.63038	-464.19599	1283.17740	934.67777	-421.59332	1262.46230	909.09324	-450.74315	1009.47754	873.81107	-112.98806	984.35186	873.81060	-301.99653	1019.33784	870.86454	-119.44593	1007.28246	877.85502	-274.26676	
101	1.00000000	1188.87832	510.25339	-56.56195	1236.69509	476.11653	-68.72509	1233.44209	109.73880	-88.55984	1182.40186	66.02393	-136.36433	1371.84953	71.25272	-55.38603	1403.75572	109.20589	-110.36460	918.84647	487.39930	-344.32976	925.39928	397.29628	-346.45684	815.60743	95.76377	-270.25042	752.89521	62.88831	-214.82243	933.17397	39.36020	-293.23167	978.46110	59.71974	-240.39099	1255.36343	364.01149	-80.83490	1174.06219	459.15770	-26.71955	1193.26287	344.95435	-25.13004	840.76307	424.35708	-356.36853	813.61345	307.10633	-341.05770	1148.31717	807.96332	-117.59766	1201.35242	710.78392	-111.60178	1200.39965	687.74816	-46.99463	1100.99556	787.87103	-19.17807	1152.44201	685.59858	-16.45320	1029.36899	797.18370	-379.61926	1005.19004	658.35043	-376.51484	917.15338	815.48127	-373.34347	892.07483	682.62731	-352.28531	1102.45380	952.55660	-89.26148	905.03873	986.89185	-145.19046	1090.12138	934.70459	-323.72661	896.73640	991.78937	-244.73438	973.33196	1457.01061	-225.63068	1020.63700	1422.30417	-61.91127	1044.69092	1409.17570	-376.85098	1081.45872	1358.16014	-200.62600	1085.17738	1353.25510	-238.33438	958.45637	1190.80716	24.73863	876.35017	1122.23445	-10.15355	905.87658	1115.23222	44.22195	917.81834	974.55326	68.31954	912.95457	866.67827	58.55672	885.27586	880.30831	88.44296	1100.58327	1190.76424	-458.04885	1073.97614	1072.46773	-428.88480	1106.10915	1086.66201	-477.27769	1226.37030	1004.81554	-462.93698	1304.28059	939.45450	-419.54987	1284.93238	912.98802	-448.54844	1023.11387	871.23360	-112.98285	996.98149	871.83312	-301.85190	1032.99017	868.23334	-119.52448	1020.09097	875.84270	-274.20934	
102	1.01000000	1199.99490	506.76214	-56.12761	1248.73372	475.52264	-68.19083	1267.62438	109.27111	-90.64429	1219.37476	63.54021	-138.56365	1408.52168	79.03073	-57.05620	1437.67068	118.86212	-111.52687	925.37727	486.66720	-344.65337	930.44136	396.45884	-346.74494	816.21117	96.34705	-270.44687	753.09145	63.53940	-214.97125	933.20692	39.26635	-293.33486	977.86889	59.19999	-240.38973	1273.72462	364.56966	-80.60754	1186.92605	454.96415	-26.49703	1212.41994	341.92205	-25.43561	846.17059	424.88663	-356.49986	817.24692	307.92389	-341.26108	1161.31874	803.32928	-118.42113	1211.96201	704.72349	-112.36856	1211.52832	682.49766	-47.65840	1113.97828	784.47737	-19.60352	1163.95358	681.62890	-16.37360	1040.12986	795.08619	-379.84540	1014.05049	656.64240	-376.55438	928.14893	814.81648	-373.41725	901.38512	682.26214	-352.07869	1116.33915	949.79181	-89.40619	918.52350	984.12094	-144.17260	1102.56468	932.74552	-323.79110	909.65621	989.41696	-243.64838	986.24718	1454.48222	-225.39165	1033.63860	1419.99404	-61.60657	1057.31683	1406.53871	-376.50807	1094.36818	1355.64995	-200.33481	1097.96899	1350.72081	-238.05947	968.20232	1189.22027	24.55499	886.12864	1121.36174	-11.63345	914.35460	1114.36134	43.32629	923.39121	973.61218	68.92154	917.14298	865.67432	59.27087	888.69964	879.73560	88.44291	1115.57972	1189.21655	-457.53002	1091.32302	1070.40225	-428.11712	1122.90182	1085.03920	-476.72225	1245.56650	1006.72159	-461.67194	1324.92911	943.99435	-417.56211	1306.92537	916.65453	-446.39146	1036.86413	868.48680	-112.97567	1009.67434	869.71213	-301.69114	1046.74076	865.45372	-119.60619	1032.96679	873.68088	-274.14245	
103	1.02000000	1211.17118	503.32671	-55.73997	1260.52814	474.62750	-67.53427	1299.18046	109.43636	-93.31988	1253.73843	62.00894	-141.54145	1441.83052	86.59232	-58.85926	1468.60421	128.22323	-112.42287	932.78179	485.64738	-344.87823	936.28009	395.34498	-346.91621	816.91891	97.00362	-270.74374	753.32201	64.34283	-215.22752	933.25180	39.14117	-293.43913	977.17371	58.60999	-240.31642	1291.10207	364.98430	-80.34076	1199.45675	450.82323	-26.32854	1230.41745	339.05852	-25.92638	852.50843	425.23721	-356.65075	821.56787	308.63532	-341.55411	1174.69927	798.87709	-119.17252	1222.78726	698.73870	-113.04470	1222.91652	677.36732	-48.21524	1127.14066	781.15700	-20.01223	1175.76351	677.79985	-16.13117	1051.25654	792.82957	-379.96758	1023.50829	654.76735	-376.55367	939.55323	813.87686	-373.69337	911.25871	681.58946	-351.88499	1130.32759	946.92673	-89.55402	932.11320	981.27439	-143.09934	1115.07970	930.63484	-323.85284	922.67276	986.93930	-242.47582	999.23114	1451.84147	-225.06944	1046.73828	1417.59040	-61.22063	1069.98058	1403.68590	-376.11575	1107.35197	1352.99935	-199.94907	1110.82299	1348.06151	-237.68951	978.29183	1187.55175	24.49584	896.19636	1120.37958	-12.84945	923.23798	1113.38751	42.64047	929.65316	972.57848	69.48433	922.28489	864.67289	59.85855	892.81473	878.86902	88.37855	1130.36098	1187.38081	-456.96614	1108.38320	1068.10635	-427.21764	1139.37205	1083.10428	-476.10113	1264.29212	1008.35259	-460.40191	1345.14156	948.28658	-415.65084	1328.35015	920.11933	-444.31155	1050.71416	865.64626	-112.92449	1022.41572	867.46337	-301.47160	1060.57079	862.58552	-119.65834	1045.90478	871.38721	-274.04755	
